<?xml version="1.0" encoding="utf-8"?>
<!-- Generator: Adobe Illustrator 23.0.4, SVG Export Plug-In . SVG Version: 6.00 Build 0)  -->
<svg version="1.1" id="horizontal-logo" xmlns="http://www.w3.org/2000/svg" xmlns:xlink="http://www.w3.org/1999/xlink" x="0px"
	 y="0px" width="178px" height="38px" viewBox="0 0 178 38" style="enable-background:new 0 0 178 38;" xml:space="preserve">
<style type="text/css">
	.st0{fill:#FFFFFF;}
	.st1{fill:#08A6DF;}
	.st2{fill:#7C2A8A;}
	.st3{fill:#EC1848;}
</style>
<g>
	<path class="st0" d="M50.1,30.2c0,0.4-0.1,0.7-0.2,0.9c-0.1,0.2-0.3,0.4-0.4,0.5c-0.2,0.1-0.3,0.2-0.5,0.3c-0.2,0-0.3,0.1-0.5,0.1
		s-0.3,0-0.5-0.1c-0.2,0-0.4-0.1-0.5-0.3c-0.2-0.1-0.3-0.3-0.4-0.5C47,30.9,47,30.5,47,30.2V18.3h-2c-0.3,0-0.6-0.1-0.8-0.2
		c-0.2-0.1-0.3-0.2-0.4-0.4c-0.1-0.1-0.2-0.3-0.2-0.4c0-0.1-0.1-0.3-0.1-0.4c0-0.1,0-0.2,0.1-0.4c0-0.1,0.1-0.3,0.2-0.4
		c0.1-0.1,0.2-0.3,0.4-0.4c0.2-0.1,0.4-0.2,0.8-0.2h2v-3.3c0-0.9,0.1-1.8,0.3-2.6c0.2-0.8,0.6-1.5,1-2.1c0.5-0.6,1.1-1,1.8-1.4
		c0.7-0.3,1.6-0.5,2.6-0.5c0.9,0,1.5,0.1,1.8,0.4c0.3,0.3,0.5,0.6,0.5,1c0,0.3-0.1,0.6-0.3,0.9c-0.2,0.3-0.6,0.4-1.2,0.4H53
		c-0.6,0-1,0.1-1.4,0.3c-0.4,0.2-0.6,0.5-0.9,0.8c-0.2,0.3-0.4,0.7-0.5,1.2c-0.1,0.5-0.1,1-0.1,1.5v3.3h2.5c0.3,0,0.6,0.1,0.8,0.2
		c0.2,0.1,0.3,0.2,0.4,0.4c0.1,0.1,0.2,0.3,0.2,0.4c0,0.1,0.1,0.3,0.1,0.4c0,0.1,0,0.2-0.1,0.4c0,0.1-0.1,0.3-0.2,0.4
		c-0.1,0.1-0.2,0.3-0.4,0.4c-0.2,0.1-0.4,0.2-0.8,0.2h-2.5V30.2z"/>
	<path class="st0" d="M72.8,23.7c0,1.2-0.2,2.4-0.7,3.4c-0.4,1-1,1.9-1.8,2.7c-0.8,0.7-1.7,1.3-2.7,1.7c-1,0.4-2.2,0.6-3.4,0.6
		c-1.2,0-2.3-0.2-3.4-0.6c-1.1-0.4-2-1-2.7-1.7c-0.8-0.7-1.4-1.6-1.8-2.7c-0.4-1-0.7-2.2-0.7-3.4c0-1.2,0.2-2.3,0.7-3.4
		c0.4-1,1-1.9,1.8-2.6c0.8-0.7,1.7-1.3,2.7-1.7c1-0.4,2.2-0.6,3.4-0.6c1.2,0,2.3,0.2,3.4,0.6c1,0.4,2,1,2.7,1.7
		c0.8,0.7,1.4,1.6,1.8,2.6C72.6,21.3,72.8,22.4,72.8,23.7z M69.5,23.7c0-0.8-0.1-1.5-0.4-2.2c-0.2-0.7-0.6-1.3-1-1.8
		c-0.4-0.5-1-0.9-1.7-1.3c-0.7-0.3-1.4-0.5-2.3-0.5c-0.8,0-1.6,0.2-2.3,0.5c-0.7,0.3-1.2,0.7-1.7,1.3c-0.4,0.5-0.8,1.1-1,1.8
		c-0.2,0.7-0.4,1.4-0.4,2.2c0,0.8,0.1,1.5,0.4,2.2c0.2,0.7,0.6,1.3,1,1.8c0.4,0.5,1,1,1.7,1.3c0.7,0.3,1.4,0.5,2.3,0.5
		c0.8,0,1.6-0.2,2.3-0.5c0.7-0.3,1.2-0.7,1.7-1.3c0.4-0.5,0.8-1.1,1-1.8C69.4,25.2,69.5,24.4,69.5,23.7z"/>
	<path class="st0" d="M80.1,18.4h0.1c0.4-0.9,1-1.6,1.8-2.2c0.8-0.6,1.8-0.9,2.8-0.9c0.5,0,0.9,0.1,1.3,0.3c0.4,0.2,0.6,0.6,0.6,1.1
		c0,0.6-0.2,0.9-0.6,1.2c-0.4,0.2-0.8,0.3-1.3,0.3h-0.2c-1.3,0-2.3,0.4-3.1,1.3c-0.8,0.9-1.2,2.2-1.2,3.9v6.7c0,0.4-0.1,0.7-0.2,0.9
		c-0.1,0.2-0.3,0.4-0.4,0.5c-0.2,0.1-0.3,0.2-0.5,0.3c-0.2,0-0.3,0.1-0.5,0.1s-0.3,0-0.5-0.1c-0.2,0-0.4-0.1-0.5-0.3
		c-0.2-0.1-0.3-0.3-0.4-0.5c-0.1-0.2-0.2-0.5-0.2-0.9v-13c0-0.4,0.1-0.6,0.2-0.9c0.1-0.2,0.2-0.4,0.4-0.5c0.2-0.1,0.3-0.2,0.5-0.2
		c0.2,0,0.3-0.1,0.5-0.1c0.1,0,0.3,0,0.4,0.1c0.2,0,0.3,0.1,0.5,0.2c0.2,0.1,0.3,0.3,0.4,0.5c0.1,0.2,0.2,0.5,0.2,0.9V18.4z"/>
	<path class="st0" d="M90.9,24.6c0,0.7,0.2,1.3,0.5,1.9c0.3,0.6,0.7,1.1,1.1,1.5c0.5,0.4,1,0.8,1.6,1c0.6,0.2,1.3,0.4,2,0.4
		c1,0,1.8-0.2,2.4-0.5c0.6-0.3,1.2-0.7,1.7-1.2c0.2-0.2,0.4-0.3,0.6-0.4c0.2-0.1,0.3-0.1,0.5-0.1c0.4,0,0.7,0.1,1,0.4
		c0.3,0.2,0.4,0.6,0.4,1c0,0.1,0,0.3-0.1,0.5c-0.1,0.2-0.2,0.4-0.4,0.6c-1.5,1.6-3.6,2.4-6,2.4c-1.2,0-2.3-0.2-3.3-0.6
		c-1-0.4-1.9-1-2.6-1.7c-0.7-0.7-1.3-1.6-1.7-2.6c-0.4-1-0.6-2.2-0.6-3.4c0-1.2,0.2-2.4,0.6-3.4c0.4-1,1-1.9,1.7-2.7
		c0.7-0.7,1.6-1.3,2.6-1.7c1-0.4,2.1-0.6,3.2-0.6c2,0,3.7,0.6,5,1.7c1.4,1.1,2.2,2.8,2.5,5c0,0.2,0.1,0.4,0.1,0.6c0,0.1,0,0.3,0,0.5
		c0,1.1-0.6,1.6-1.7,1.6H90.9z M100.3,22.3c0-0.6-0.1-1.2-0.3-1.8c-0.2-0.5-0.5-1-0.8-1.4c-0.4-0.4-0.8-0.7-1.4-1
		c-0.5-0.2-1.2-0.4-1.9-0.4c-0.7,0-1.3,0.1-1.9,0.4c-0.6,0.2-1.1,0.6-1.5,1c-0.4,0.4-0.8,0.9-1.1,1.4c-0.3,0.5-0.4,1.1-0.5,1.8
		H100.3z"/>
	<path class="st0" d="M118.4,28.4c0.4-0.3,0.8-0.5,1.1-0.5c0.4,0,0.7,0.1,1,0.4c0.2,0.3,0.4,0.6,0.4,0.9c0,0.2,0,0.4-0.1,0.7
		c-0.1,0.2-0.3,0.5-0.6,0.7c-0.6,0.5-1.4,0.9-2.2,1.2c-0.8,0.3-1.7,0.4-2.6,0.4c-1.2,0-2.4-0.2-3.4-0.6c-1-0.4-1.9-1-2.7-1.7
		c-0.7-0.7-1.3-1.6-1.8-2.6c-0.4-1-0.6-2.2-0.6-3.4c0-1.3,0.2-2.4,0.6-3.4c0.4-1,1-1.9,1.8-2.6c0.8-0.7,1.7-1.3,2.7-1.7
		c1-0.4,2.2-0.6,3.4-0.6c0.8,0,1.7,0.1,2.5,0.4c0.8,0.2,1.5,0.6,2.2,1.1c0.3,0.2,0.5,0.5,0.6,0.7c0.1,0.2,0.2,0.5,0.2,0.7
		c0,0.4-0.1,0.8-0.4,1c-0.3,0.2-0.6,0.4-1,0.4c-0.2,0-0.4,0-0.5-0.1c-0.2-0.1-0.4-0.2-0.7-0.5c-0.3-0.2-0.7-0.5-1.2-0.7
		c-0.5-0.2-1-0.3-1.6-0.3c-0.8,0-1.6,0.2-2.2,0.5c-0.6,0.3-1.2,0.7-1.6,1.3c-0.4,0.5-0.8,1.1-1,1.8c-0.2,0.7-0.4,1.4-0.4,2.2
		s0.1,1.5,0.3,2.2c0.2,0.7,0.6,1.3,1,1.8c0.4,0.5,1,0.9,1.6,1.3c0.6,0.3,1.4,0.5,2.2,0.5c0.6,0,1.2-0.1,1.7-0.3
		C117.5,29,118,28.7,118.4,28.4z"/>
	<path class="st0" d="M134.4,29.4h-0.1c-0.6,0.8-1.3,1.5-2.2,2c-0.9,0.5-1.9,0.7-3.1,0.7c-0.6,0-1.3-0.1-2-0.3
		c-0.7-0.2-1.3-0.4-1.9-0.8c-0.6-0.4-1-0.9-1.4-1.5c-0.4-0.6-0.6-1.4-0.6-2.3c0-1.2,0.3-2.2,1-2.9c0.6-0.7,1.5-1.2,2.5-1.6
		c1-0.4,2.2-0.6,3.6-0.7c1.3-0.1,2.6-0.2,4-0.2v-0.4c0-1.2-0.4-2.1-1.1-2.6c-0.7-0.6-1.7-0.9-2.8-0.9c-0.7,0-1.3,0.1-1.9,0.3
		c-0.6,0.2-1.2,0.5-1.8,0.9c-0.3,0.2-0.6,0.3-0.9,0.3c-0.3,0-0.6-0.1-0.9-0.4c-0.2-0.2-0.4-0.5-0.4-0.9c0-0.2,0-0.4,0.2-0.7
		c0.1-0.2,0.3-0.4,0.6-0.6c0.7-0.5,1.5-0.9,2.4-1.2c0.9-0.3,2-0.4,3-0.4c1.1,0,2.1,0.2,3,0.5c0.8,0.3,1.5,0.8,2.1,1.3
		c0.5,0.6,0.9,1.2,1.2,2c0.3,0.8,0.4,1.6,0.4,2.4v8.7c0,0.3,0,0.6-0.2,0.8c-0.1,0.2-0.2,0.4-0.4,0.5c-0.2,0.1-0.3,0.2-0.5,0.2
		c-0.2,0-0.3,0-0.4,0c-0.1,0-0.3,0-0.4,0c-0.2,0-0.3-0.1-0.5-0.2s-0.3-0.3-0.4-0.5c-0.1-0.2-0.2-0.5-0.2-0.8V29.4z M133.5,24.1
		c-0.8,0-1.6,0-2.4,0.1c-0.8,0.1-1.6,0.2-2.3,0.4c-0.7,0.2-1.2,0.5-1.7,0.9c-0.4,0.4-0.7,0.9-0.7,1.6c0,0.5,0.1,0.9,0.3,1.2
		c0.2,0.3,0.4,0.6,0.8,0.8c0.3,0.2,0.7,0.3,1,0.4c0.4,0.1,0.8,0.1,1.2,0.1c1.5,0,2.6-0.4,3.4-1.3c0.8-0.9,1.2-2,1.2-3.3v-0.8H133.5z
		"/>
	<path class="st0" d="M150.5,19c-0.5-0.4-1-0.8-1.5-0.9c-0.5-0.2-1-0.3-1.6-0.3c-0.4,0-0.7,0-1.1,0.1c-0.4,0.1-0.7,0.2-1,0.4
		c-0.3,0.2-0.5,0.4-0.7,0.6c-0.2,0.3-0.3,0.6-0.3,1c0,0.7,0.3,1.2,0.9,1.5c0.6,0.3,1.5,0.6,2.7,0.9c0.8,0.2,1.5,0.4,2.1,0.6
		c0.6,0.2,1.2,0.6,1.7,0.9c0.5,0.4,0.9,0.8,1.1,1.3c0.3,0.5,0.4,1.1,0.4,1.8c0,0.9-0.2,1.7-0.5,2.4c-0.4,0.6-0.8,1.2-1.4,1.6
		c-0.6,0.4-1.3,0.7-2,0.9c-0.8,0.2-1.5,0.3-2.3,0.3c-1,0-1.9-0.2-2.8-0.5c-0.9-0.3-1.7-0.7-2.4-1.3c-0.3-0.2-0.4-0.5-0.5-0.7
		c-0.1-0.2-0.1-0.4-0.1-0.6c0-0.4,0.1-0.7,0.4-1c0.3-0.3,0.6-0.4,1-0.4c0.4,0,0.8,0.2,1.2,0.5c0.5,0.4,1,0.8,1.6,1
		c0.6,0.2,1.2,0.4,1.8,0.4c0.4,0,0.8,0,1.2-0.1c0.4-0.1,0.7-0.2,1-0.4c0.3-0.2,0.5-0.4,0.7-0.7c0.2-0.3,0.3-0.7,0.3-1.1
		c0-0.7-0.4-1.3-1.1-1.6c-0.7-0.4-1.7-0.7-3.1-1c-0.5-0.1-1.1-0.3-1.6-0.5c-0.5-0.2-1-0.4-1.5-0.8c-0.4-0.3-0.8-0.7-1.1-1.2
		c-0.3-0.5-0.4-1.1-0.4-1.9c0-0.8,0.2-1.6,0.5-2.2c0.3-0.6,0.8-1.1,1.4-1.5c0.6-0.4,1.2-0.7,1.9-0.9c0.7-0.2,1.5-0.3,2.2-0.3
		c0.8,0,1.7,0.1,2.5,0.4c0.8,0.2,1.5,0.6,2.1,1.1c0.3,0.2,0.5,0.5,0.6,0.7c0.1,0.2,0.1,0.4,0.1,0.6c0,0.4-0.1,0.7-0.4,1
		c-0.2,0.3-0.6,0.4-1,0.4C151.2,19.5,150.8,19.3,150.5,19z"/>
	<path class="st0" d="M164.5,31.5c-0.5,0.2-1.2,0.4-2,0.4c-1.5,0-2.7-0.4-3.4-1.3c-0.8-0.8-1.2-2.1-1.2-3.7v-8.6H156
		c-0.3,0-0.6,0-0.8-0.1c-0.2-0.1-0.3-0.2-0.5-0.3c-0.1-0.1-0.2-0.3-0.2-0.4c0-0.1-0.1-0.3-0.1-0.4c0-0.1,0-0.2,0.1-0.4
		c0-0.1,0.1-0.3,0.2-0.4c0.1-0.1,0.3-0.3,0.5-0.4c0.2-0.1,0.4-0.2,0.8-0.2h1.8v-3.1c0-0.4,0.1-0.7,0.2-0.9c0.1-0.2,0.3-0.4,0.4-0.5
		c0.2-0.1,0.3-0.2,0.5-0.3c0.2,0,0.3-0.1,0.5-0.1s0.3,0,0.5,0.1c0.2,0,0.3,0.1,0.5,0.3c0.2,0.1,0.3,0.3,0.4,0.5
		c0.1,0.2,0.2,0.5,0.2,0.9v3.1h3c0.3,0,0.6,0.1,0.8,0.2c0.2,0.1,0.3,0.2,0.4,0.4c0.1,0.1,0.2,0.3,0.2,0.4c0,0.1,0.1,0.3,0.1,0.4
		c0,0.1,0,0.2-0.1,0.4c0,0.1-0.1,0.3-0.2,0.4c-0.1,0.1-0.2,0.2-0.4,0.3c-0.2,0.1-0.4,0.1-0.8,0.1h-3v8.3c0,1,0.2,1.7,0.5,2.1
		c0.3,0.4,0.8,0.6,1.4,0.6c0.2,0,0.4,0,0.7-0.1c0.2-0.1,0.4-0.1,0.6-0.1c0.4,0,0.7,0.1,0.9,0.4c0.2,0.2,0.3,0.5,0.3,0.9
		c0,0.2-0.1,0.5-0.2,0.7C165.1,31.2,164.8,31.4,164.5,31.5z"/>
	<path class="st0" d="M171.4,18.4h0.1c0.4-0.9,1-1.6,1.8-2.2c0.8-0.6,1.8-0.9,2.8-0.9c0.5,0,0.9,0.1,1.3,0.3
		c0.4,0.2,0.6,0.6,0.6,1.1c0,0.6-0.2,0.9-0.6,1.2c-0.4,0.2-0.8,0.3-1.3,0.3h-0.2c-1.3,0-2.3,0.4-3.1,1.3c-0.8,0.9-1.2,2.2-1.2,3.9
		v6.7c0,0.4-0.1,0.7-0.2,0.9c-0.1,0.2-0.3,0.4-0.4,0.5c-0.2,0.1-0.3,0.2-0.5,0.3c-0.2,0-0.3,0.1-0.5,0.1c-0.1,0-0.3,0-0.5-0.1
		c-0.2,0-0.4-0.1-0.5-0.3c-0.2-0.1-0.3-0.3-0.4-0.5c-0.1-0.2-0.2-0.5-0.2-0.9v-13c0-0.4,0.1-0.6,0.2-0.9c0.1-0.2,0.2-0.4,0.4-0.5
		c0.2-0.1,0.3-0.2,0.5-0.2c0.2,0,0.3-0.1,0.5-0.1c0.1,0,0.3,0,0.4,0.1c0.2,0,0.3,0.1,0.5,0.2c0.2,0.1,0.3,0.3,0.4,0.5
		c0.1,0.2,0.2,0.5,0.2,0.9V18.4z"/>
</g>
<g>
	<g>
		<path class="st1" d="M19,38C8.5,38,0,29.5,0,19C0,13.5,2.4,8.3,6.5,4.7c0.6-0.5,1.4-0.4,1.9,0.1c0.5,0.6,0.4,1.4-0.1,1.9
			C4.7,9.8,2.7,14.3,2.7,19c0,9,7.3,16.3,16.3,16.3S35.3,28,35.3,19S28,2.7,19,2.7c-2.2,0-4.3,0.4-6.3,1.2c-0.7,0.3-1.5,0-1.7-0.7
			c-0.3-0.7,0-1.5,0.7-1.7C14,0.5,16.5,0,19,0c10.5,0,19,8.5,19,19S29.5,38,19,38z"/>
	</g>
	<g>
		<path class="st2" d="M19,32.8c-7.6,0-13.8-6.2-13.8-13.8c0-7.6,6.2-13.8,13.8-13.8c5.8,0,11,3.7,13,9.1c0.5,1.5,0.8,3.1,0.8,4.7
			c0,0.7-0.6,1.3-1.3,1.3s-1.3-0.6-1.3-1.3c0-1.3-0.2-2.6-0.7-3.8c-1.6-4.4-5.8-7.4-10.5-7.4c-6.1,0-11.1,5-11.1,11.1
			s5,11.1,11.1,11.1c0.7,0,1.3,0.6,1.3,1.3C20.3,32.2,19.7,32.8,19,32.8z"/>
	</g>
	<g>
		<path class="st3" d="M19,27.5c-4.7,0-8.5-3.8-8.5-8.5c0-4.7,3.8-8.5,8.5-8.5c0.7,0,1.3,0.6,1.3,1.3c0,0.7-0.6,1.3-1.3,1.3
			c-3.2,0-5.9,2.6-5.9,5.9s2.6,5.9,5.9,5.9s5.9-2.6,5.9-5.9c0-0.7,0.6-1.3,1.3-1.3c0.7,0,1.3,0.6,1.3,1.3
			C27.5,23.7,23.7,27.5,19,27.5z"/>
	</g>
</g>
</svg>
