<svg id="svg" version="1.1" xmlns="http://www.w3.org/2000/svg" xmlns:xlink="http://www.w3.org/1999/xlink" width="400" height="388.01498127340824" viewBox="0, 0, 400,388.01498127340824">
	<g id="svgg">
		<path id="path0" d="M81.650 145.533 L 81.748 285.631 195.105 285.729 C 278.580 285.801,308.601 285.711,308.989 285.390 C 309.788 284.726,309.649 283.069,308.774 282.840 C 308.366 282.734,307.946 282.313,307.839 281.906 C 307.733 281.498,307.387 281.165,307.072 281.165 C 306.756 281.165,306.407 280.816,306.295 280.388 C 306.184 279.961,305.834 279.612,305.519 279.612 C 305.203 279.612,304.854 279.262,304.742 278.835 C 304.630 278.408,304.260 278.058,303.920 278.058 C 303.534 278.058,303.301 277.724,303.301 277.168 C 303.301 276.627,302.692 275.719,301.748 274.850 C 300.893 274.065,300.194 273.155,300.194 272.828 C 300.194 272.501,299.996 272.233,299.753 272.233 C 299.232 272.233,297.694 270.643,297.352 269.751 C 297.220 269.407,296.865 269.126,296.562 269.126 C 296.260 269.126,295.922 268.777,295.810 268.350 C 295.698 267.922,295.349 267.573,295.033 267.573 C 294.718 267.573,294.368 267.223,294.256 266.796 C 294.145 266.369,293.775 266.019,293.434 266.019 C 293.094 266.019,292.816 265.778,292.816 265.482 C 292.816 265.187,292.466 264.854,292.039 264.742 C 291.541 264.612,291.262 264.212,291.261 263.629 C 291.261 263.070,290.661 262.154,289.708 261.257 C 288.854 260.454,288.155 259.536,288.155 259.219 C 288.155 258.901,287.990 258.641,287.787 258.641 C 287.264 258.641,285.621 257.022,285.323 256.214 C 285.185 255.840,284.805 255.534,284.478 255.534 C 284.151 255.534,283.883 255.292,283.883 254.997 C 283.883 254.701,283.534 254.368,283.107 254.256 C 282.680 254.145,282.330 253.775,282.330 253.434 C 282.330 253.074,282.005 252.816,281.553 252.816 C 281.036 252.816,280.777 252.557,280.777 252.039 C 280.777 251.521,280.518 251.262,280.000 251.262 C 279.420 251.262,279.223 251.003,279.223 250.239 C 279.223 249.676,278.830 248.831,278.350 248.360 C 277.869 247.890,276.789 246.691,275.950 245.695 C 275.111 244.698,274.193 243.883,273.911 243.883 C 273.629 243.883,273.398 243.534,273.398 243.107 C 273.398 242.589,273.139 242.330,272.621 242.330 C 272.104 242.330,271.845 242.071,271.845 241.553 C 271.845 241.036,271.586 240.777,271.068 240.777 C 270.550 240.777,270.291 240.518,270.291 240.000 C 270.291 239.482,270.032 239.223,269.515 239.223 C 268.919 239.223,268.738 238.964,268.738 238.113 C 268.738 237.300,268.329 236.654,267.211 235.703 C 266.371 234.988,265.777 234.252,265.891 234.069 C 266.005 233.885,265.747 233.642,265.318 233.530 C 264.889 233.418,264.451 232.993,264.344 232.585 C 264.238 232.178,263.872 231.845,263.532 231.845 C 263.172 231.845,262.913 231.520,262.913 231.068 C 262.913 230.550,262.654 230.291,262.136 230.291 C 261.618 230.291,261.359 230.032,261.359 229.515 C 261.359 228.997,261.100 228.738,260.583 228.738 C 260.065 228.738,259.806 228.479,259.806 227.961 C 259.806 227.443,259.547 227.184,259.029 227.184 C 258.511 227.184,258.252 226.926,258.252 226.408 C 258.252 225.981,258.011 225.631,257.715 225.631 C 257.420 225.631,257.087 225.282,256.975 224.854 C 256.774 224.085,256.963 224.078,277.498 224.078 C 297.605 224.078,298.237 224.055,298.628 223.325 C 298.904 222.810,299.000 188.431,298.933 114.102 L 298.835 5.631 190.194 5.533 L 81.552 5.436 81.650 145.533 M280.777 113.981 L 280.777 204.660 190.291 204.660 L 99.806 204.660 99.806 113.981 L 99.806 23.301 190.291 23.301 L 280.777 23.301 280.777 113.981 M231.456 224.854 C 231.456 225.357,231.715 225.631,232.190 225.631 C 232.721 225.631,232.994 226.007,233.178 226.990 C 233.331 227.804,233.660 228.350,233.998 228.350 C 234.309 228.350,234.563 228.687,234.563 229.100 C 234.563 229.513,234.913 229.962,235.340 230.097 C 235.767 230.233,236.117 230.499,236.117 230.688 C 236.117 231.150,237.997 233.010,238.464 233.010 C 238.668 233.010,238.835 233.359,238.835 233.786 C 238.835 234.288,239.094 234.563,239.566 234.563 C 239.971 234.563,240.388 234.910,240.501 235.340 C 240.613 235.767,240.963 236.117,241.280 236.117 C 241.630 236.117,241.955 236.648,242.110 237.476 C 242.251 238.223,242.556 238.835,242.789 238.835 C 243.375 238.835,245.049 240.699,245.049 241.353 C 245.049 241.648,245.398 242.000,245.825 242.136 C 246.252 242.272,246.602 242.633,246.602 242.939 C 246.602 243.245,246.852 243.495,247.158 243.495 C 247.464 243.495,247.826 243.845,247.961 244.272 C 248.097 244.699,248.458 245.049,248.764 245.049 C 249.070 245.049,249.320 245.398,249.320 245.825 C 249.320 246.327,249.579 246.602,250.052 246.602 C 250.457 246.602,250.874 246.949,250.986 247.379 C 251.098 247.806,251.468 248.155,251.808 248.155 C 252.241 248.155,252.427 248.516,252.427 249.357 C 252.427 250.232,252.638 250.613,253.204 250.761 C 253.631 250.873,253.981 251.200,253.981 251.488 C 253.981 251.776,254.330 252.199,254.757 252.427 C 255.184 252.656,255.534 253.099,255.534 253.412 C 255.534 253.725,255.883 253.981,256.311 253.981 C 256.828 253.981,257.087 254.239,257.087 254.757 C 257.087 255.209,257.346 255.534,257.706 255.534 C 258.047 255.534,258.417 255.883,258.528 256.311 C 258.640 256.738,258.973 257.087,259.269 257.087 C 259.564 257.087,259.806 257.437,259.806 257.864 C 259.806 258.382,260.065 258.641,260.583 258.641 C 261.151 258.641,261.359 258.900,261.359 259.608 C 261.359 260.155,261.697 260.787,262.136 261.061 C 262.563 261.328,262.913 261.754,262.913 262.009 C 262.913 262.264,263.243 262.577,263.647 262.705 C 264.052 262.833,264.472 263.282,264.582 263.702 C 264.692 264.122,265.060 264.466,265.401 264.466 C 265.761 264.466,266.019 264.791,266.019 265.243 C 266.019 265.761,266.278 266.019,266.796 266.019 C 267.314 266.019,267.573 266.278,267.573 266.796 C 267.573 267.228,267.832 267.573,268.155 267.573 C 268.476 267.573,268.738 267.646,268.738 267.735 C 268.738 267.825,268.844 268.174,268.974 268.512 C 269.188 269.071,261.585 269.126,184.508 269.126 L 99.806 269.126 99.806 246.602 L 99.806 224.078 165.631 224.078 C 231.197 224.078,231.456 224.081,231.456 224.854 M69.417 300.367 C 68.830 301.103,68.350 301.909,68.350 302.157 C 68.350 302.405,68.103 302.513,67.803 302.397 C 67.452 302.263,67.169 302.532,67.015 303.147 C 66.859 303.768,66.541 304.067,66.115 303.995 C 65.752 303.934,65.434 304.145,65.408 304.466 C 65.382 304.786,65.334 305.442,65.302 305.922 C 65.262 306.517,64.995 306.796,64.466 306.796 C 64.039 306.796,63.689 307.046,63.689 307.352 C 63.689 307.658,63.340 308.020,62.913 308.155 C 62.485 308.291,62.136 308.632,62.136 308.913 C 62.136 309.194,61.786 309.515,61.359 309.627 C 60.932 309.739,60.583 310.097,60.583 310.423 C 60.583 310.749,60.233 311.127,59.806 311.262 C 59.379 311.398,59.029 311.759,59.029 312.065 C 59.029 312.371,58.767 312.621,58.447 312.621 C 58.126 312.621,57.864 312.950,57.864 313.353 C 57.864 313.758,57.517 314.175,57.087 314.287 C 56.660 314.399,56.311 314.749,56.311 315.064 C 56.311 315.379,55.961 315.729,55.534 315.841 C 55.107 315.952,54.757 316.302,54.757 316.617 C 54.757 316.933,54.408 317.282,53.981 317.394 C 53.553 317.506,53.204 317.876,53.204 318.216 C 53.204 318.582,52.877 318.835,52.404 318.835 C 51.964 318.835,51.705 318.998,51.828 319.196 C 51.951 319.395,51.000 320.586,49.715 321.844 C 48.007 323.514,47.379 324.410,47.379 325.172 C 47.379 325.955,47.186 326.214,46.602 326.214 C 46.084 326.214,45.825 326.472,45.825 326.990 C 45.825 327.508,45.566 327.767,45.049 327.767 C 44.531 327.767,44.272 328.026,44.272 328.544 C 44.272 329.061,44.013 329.320,43.495 329.320 C 43.064 329.320,42.718 329.579,42.718 329.903 C 42.718 330.223,42.451 330.485,42.124 330.485 C 41.797 330.485,41.422 330.765,41.291 331.107 C 40.994 331.880,39.308 333.592,38.843 333.592 C 38.654 333.592,38.393 333.926,38.264 334.333 C 38.134 334.741,37.773 335.172,37.461 335.292 C 37.149 335.412,36.893 335.757,36.893 336.059 C 36.893 336.361,36.544 336.700,36.117 336.812 C 35.689 336.923,35.340 337.293,35.340 337.634 C 35.340 337.994,35.015 338.252,34.563 338.252 C 34.136 338.252,33.807 338.383,33.832 338.544 C 33.959 339.343,33.716 339.776,33.018 339.997 C 32.595 340.132,32.289 340.364,32.338 340.514 C 32.387 340.665,31.785 341.397,30.999 342.141 C 30.214 342.886,29.457 343.959,29.316 344.526 C 29.175 345.094,28.726 345.645,28.317 345.752 C 27.908 345.859,27.573 346.225,27.573 346.566 C 27.573 346.906,27.311 347.184,26.990 347.184 C 26.667 347.184,26.408 347.530,26.408 347.961 C 26.408 348.479,26.149 348.738,25.631 348.738 C 25.113 348.738,24.854 348.997,24.854 349.515 C 24.854 350.032,24.595 350.291,24.078 350.291 C 23.650 350.291,23.301 350.542,23.301 350.848 C 23.301 351.154,22.951 351.515,22.524 351.650 C 22.097 351.786,21.748 352.147,21.748 352.453 C 21.748 352.759,21.481 353.010,21.155 353.010 C 20.830 353.010,20.397 353.448,20.193 353.983 C 19.989 354.519,19.609 354.912,19.347 354.857 C 19.085 354.802,18.862 354.972,18.853 355.235 C 18.843 355.498,18.442 355.989,17.961 356.325 C 17.481 356.662,17.087 357.200,17.087 357.521 C 17.087 357.842,16.913 357.996,16.699 357.864 C 16.485 357.732,16.311 357.792,16.311 357.996 C 16.311 358.468,13.633 361.165,13.165 361.165 C 12.973 361.165,12.836 361.296,12.862 361.456 C 13.059 362.704,12.740 363.495,12.039 363.495 C 11.521 363.495,11.262 363.754,11.262 364.272 C 11.262 364.790,11.003 365.049,10.485 365.049 C 9.984 365.049,9.709 365.307,9.709 365.780 C 9.709 366.185,9.362 366.602,8.932 366.714 C 8.205 366.905,8.155 367.244,8.155 372.002 C 8.155 376.193,8.056 377.087,7.590 377.087 C 6.920 377.087,6.492 378.991,6.671 381.182 L 6.796 382.718 97.379 382.816 L 187.961 382.914 187.961 366.603 L 187.961 350.291 136.153 350.291 C 84.827 350.291,84.346 350.284,84.544 349.527 C 84.654 349.107,85.075 348.659,85.479 348.530 C 85.883 348.402,86.214 348.047,86.214 347.741 C 86.214 347.435,86.393 347.184,86.612 347.184 C 86.830 347.184,87.176 346.748,87.379 346.214 C 87.582 345.680,88.006 345.243,88.322 345.243 C 88.671 345.243,88.997 344.709,89.152 343.883 C 89.298 343.105,89.637 342.524,89.946 342.524 C 90.243 342.524,90.485 342.175,90.485 341.748 C 90.485 341.230,90.744 340.971,91.262 340.971 C 91.689 340.971,92.039 340.721,92.039 340.415 C 92.039 340.109,92.388 339.747,92.816 339.612 C 93.243 339.476,93.592 339.027,93.592 338.615 C 93.592 338.202,93.846 337.864,94.157 337.864 C 94.495 337.864,94.824 337.318,94.977 336.505 C 95.162 335.521,95.435 335.146,95.966 335.146 C 96.440 335.146,96.699 334.871,96.699 334.369 C 96.699 333.597,96.958 333.592,142.334 333.592 L 187.969 333.592 187.868 316.408 L 187.767 299.223 129.126 299.125 L 70.485 299.027 69.417 300.367 M206.334 299.515 C 205.975 300.069,205.671 379.722,206.020 381.650 L 206.249 382.913 300.406 382.913 L 394.563 382.913 394.563 381.553 C 394.563 380.655,394.381 380.194,394.026 380.194 C 393.730 380.194,393.397 379.845,393.286 379.417 C 393.174 378.990,392.824 378.641,392.509 378.641 C 392.193 378.641,391.844 378.291,391.732 377.864 C 391.620 377.437,391.251 377.087,390.910 377.087 C 390.546 377.087,390.291 376.761,390.291 376.296 C 390.291 375.860,389.614 374.820,388.786 373.984 C 387.959 373.148,387.178 372.193,387.051 371.863 C 386.924 371.533,386.553 371.262,386.226 371.262 C 385.890 371.262,385.631 370.924,385.631 370.485 C 385.631 369.968,385.372 369.709,384.854 369.709 C 384.337 369.709,384.078 369.450,384.078 368.932 C 384.078 368.505,383.836 368.155,383.540 368.155 C 383.245 368.155,382.912 367.806,382.800 367.379 C 382.688 366.951,382.339 366.602,382.023 366.602 C 381.708 366.602,381.358 366.252,381.247 365.825 C 381.135 365.398,380.785 365.049,380.470 365.049 C 380.155 365.049,379.805 364.699,379.693 364.272 C 379.582 363.845,379.212 363.495,378.871 363.495 C 378.485 363.495,378.252 363.161,378.252 362.605 C 378.252 362.071,377.660 361.171,376.770 360.353 C 375.955 359.603,375.174 358.693,375.035 358.330 C 374.896 357.967,374.514 357.670,374.187 357.670 C 373.851 357.670,373.592 357.332,373.592 356.893 C 373.592 356.466,373.425 356.117,373.222 356.117 C 372.736 356.117,371.053 354.425,370.748 353.631 C 370.617 353.289,370.263 353.010,369.960 353.010 C 369.658 353.010,369.320 352.660,369.208 352.233 C 369.096 351.806,368.726 351.456,368.386 351.456 C 368.045 351.456,367.767 351.194,367.767 350.874 C 367.767 350.358,360.777 350.291,307.184 350.291 L 246.602 350.291 246.602 341.942 L 246.602 333.592 300.388 333.592 L 354.175 333.592 354.175 331.614 C 354.175 329.963,354.047 329.602,353.398 329.433 C 352.971 329.321,352.621 328.988,352.621 328.693 C 352.621 328.397,352.443 328.155,352.225 328.155 C 352.007 328.155,351.629 327.718,351.386 327.184 C 351.142 326.650,350.730 326.214,350.468 326.214 C 350.207 326.214,349.902 325.864,349.790 325.437 C 349.679 325.010,349.309 324.660,348.968 324.660 C 348.628 324.660,348.350 324.410,348.350 324.104 C 348.350 323.798,348.000 323.437,347.573 323.301 C 347.146 323.165,346.796 322.816,346.796 322.524 C 346.796 322.233,346.447 321.883,346.019 321.748 C 345.592 321.612,345.243 321.262,345.243 320.971 C 345.243 320.679,344.893 320.330,344.466 320.194 C 344.039 320.059,343.689 319.697,343.689 319.391 C 343.689 319.085,343.340 318.835,342.913 318.835 C 342.395 318.835,342.136 318.576,342.136 318.058 C 342.136 317.631,341.886 317.282,341.580 317.282 C 341.274 317.282,340.912 316.932,340.777 316.505 C 340.641 316.078,340.280 315.728,339.974 315.728 C 339.668 315.728,339.417 315.450,339.417 315.109 C 339.417 314.769,339.068 314.399,338.641 314.287 C 338.211 314.175,337.864 313.758,337.864 313.353 C 337.864 312.880,337.589 312.621,337.087 312.621 C 336.636 312.621,336.311 312.362,336.311 312.002 C 336.311 311.662,335.961 311.292,335.534 311.180 C 335.107 311.069,334.757 310.719,334.757 310.404 C 334.757 310.088,334.408 309.739,333.981 309.627 C 333.553 309.515,333.204 309.194,333.204 308.913 C 333.204 308.632,332.854 308.291,332.427 308.155 C 332.000 308.020,331.650 307.658,331.650 307.352 C 331.650 307.046,331.388 306.796,331.068 306.796 C 330.748 306.796,330.485 306.518,330.485 306.177 C 330.485 305.837,330.136 305.467,329.709 305.355 C 329.279 305.243,328.932 304.826,328.932 304.421 C 328.932 303.948,328.657 303.689,328.155 303.689 C 327.638 303.689,327.379 303.430,327.379 302.913 C 327.379 302.395,327.120 302.136,326.602 302.136 C 326.150 302.136,325.825 301.877,325.825 301.517 C 325.825 301.177,325.476 300.807,325.049 300.695 C 324.619 300.583,324.272 300.165,324.272 299.761 C 324.272 298.829,206.936 298.585,206.334 299.515 M180.583 312.621 L 180.583 317.282 132.621 317.282 C 84.919 317.282,84.660 317.286,84.660 318.058 C 84.660 318.485,84.447 318.835,84.188 318.835 C 83.438 318.835,80.388 322.414,80.133 323.592 C 80.007 324.180,79.663 324.660,79.369 324.660 C 79.075 324.660,78.835 325.010,78.835 325.437 C 78.835 325.955,78.576 326.214,78.058 326.214 C 77.556 326.214,77.282 326.472,77.282 326.945 C 77.282 327.350,76.935 327.767,76.505 327.880 C 76.078 327.991,75.728 328.349,75.728 328.675 C 75.728 329.001,75.382 329.378,74.959 329.512 C 74.536 329.646,74.208 329.876,74.229 330.024 C 74.407 331.279,74.094 332.039,73.398 332.039 C 72.971 332.039,72.621 332.287,72.621 332.591 C 72.621 332.894,71.922 333.848,71.068 334.711 C 70.214 335.574,69.515 336.472,69.515 336.707 C 69.515 336.941,69.358 337.037,69.167 336.918 C 68.743 336.657,68.350 337.595,68.350 338.867 C 68.350 339.547,68.135 339.806,67.573 339.806 C 67.141 339.806,66.796 340.065,66.796 340.388 C 66.796 340.709,66.528 340.971,66.201 340.971 C 65.874 340.971,65.493 341.277,65.354 341.650 C 65.215 342.024,64.434 342.965,63.619 343.741 C 62.638 344.675,62.136 345.496,62.136 346.168 C 62.136 346.926,61.938 347.184,61.359 347.184 C 60.841 347.184,60.583 347.443,60.583 347.961 C 60.583 348.413,60.324 348.738,59.964 348.738 C 59.623 348.738,59.253 349.087,59.142 349.515 C 59.030 349.942,58.697 350.291,58.401 350.291 C 58.106 350.291,57.864 350.599,57.864 350.975 C 57.864 351.350,57.515 351.876,57.087 352.143 C 56.582 352.458,56.311 353.049,56.311 353.831 C 56.311 354.738,56.168 354.980,55.732 354.813 C 54.959 354.516,54.501 356.310,55.150 357.092 C 55.570 357.599,63.287 357.670,118.106 357.670 L 180.583 357.670 180.583 362.136 L 180.583 366.602 101.165 366.602 C 22.006 366.602,21.748 366.599,21.748 365.825 C 21.748 365.307,22.006 365.049,22.524 365.049 C 23.042 365.049,23.301 364.790,23.301 364.272 C 23.301 363.820,23.560 363.495,23.920 363.495 C 24.260 363.495,24.630 363.146,24.742 362.718 C 24.854 362.291,25.091 361.942,25.270 361.942 C 25.720 361.942,27.408 360.214,27.698 359.456 C 27.830 359.115,28.204 358.835,28.532 358.835 C 28.867 358.835,29.126 358.497,29.126 358.058 C 29.126 357.631,29.292 357.282,29.495 357.282 C 30.029 357.282,31.845 355.522,31.845 355.004 C 31.845 354.762,32.007 354.563,32.205 354.563 C 32.892 354.563,33.786 353.339,33.786 352.399 C 33.786 351.715,34.000 351.456,34.563 351.456 C 34.995 351.456,35.340 351.197,35.340 350.874 C 35.340 350.553,35.618 350.291,35.959 350.291 C 36.299 350.291,36.669 349.942,36.781 349.515 C 36.892 349.087,37.226 348.738,37.521 348.738 C 37.816 348.738,38.058 348.388,38.058 347.961 C 38.058 347.443,38.317 347.184,38.835 347.184 C 39.353 347.184,39.612 346.926,39.612 346.408 C 39.612 345.890,39.871 345.631,40.388 345.631 C 40.906 345.631,41.165 345.372,41.165 344.854 C 41.165 344.337,41.424 344.078,41.942 344.078 C 42.460 344.078,42.718 343.819,42.718 343.301 C 42.718 342.849,42.977 342.524,43.337 342.524 C 43.678 342.524,44.048 342.175,44.159 341.748 C 44.271 341.320,44.520 340.971,44.712 340.971 C 44.904 340.971,45.539 340.433,46.123 339.775 C 46.707 339.117,47.840 337.907,48.641 337.087 C 49.442 336.266,50.097 335.427,50.097 335.221 C 50.097 335.016,50.447 334.756,50.874 334.645 C 51.439 334.497,51.650 334.115,51.650 333.240 C 51.650 332.298,51.818 332.039,52.427 332.039 C 52.945 332.039,53.204 331.780,53.204 331.262 C 53.204 330.744,53.463 330.485,53.981 330.485 C 54.498 330.485,54.757 330.227,54.757 329.709 C 54.757 329.191,55.016 328.932,55.534 328.932 C 55.961 328.932,56.311 328.765,56.311 328.561 C 56.311 328.080,58.177 326.214,58.658 326.214 C 58.862 326.214,59.029 325.864,59.029 325.437 C 59.029 324.919,59.288 324.660,59.806 324.660 C 60.324 324.660,60.583 324.401,60.583 323.883 C 60.583 323.366,60.841 323.107,61.359 323.107 C 61.877 323.107,62.136 322.848,62.136 322.330 C 62.136 321.878,62.395 321.553,62.755 321.553 C 63.095 321.553,63.465 321.204,63.577 320.777 C 63.689 320.350,64.038 320.000,64.353 320.000 C 64.669 320.000,65.018 319.650,65.130 319.223 C 65.242 318.796,65.575 318.447,65.871 318.447 C 66.166 318.447,66.408 318.253,66.408 318.016 C 66.408 317.779,67.456 316.574,68.738 315.340 C 70.417 313.722,71.068 312.812,71.068 312.081 C 71.068 311.327,71.266 311.068,71.845 311.068 C 72.362 311.068,72.621 310.809,72.621 310.291 C 72.621 309.773,72.880 309.515,73.398 309.515 C 73.916 309.515,74.175 309.256,74.175 308.738 C 74.175 307.965,74.434 307.961,127.379 307.961 L 180.583 307.961 180.583 312.621 M320.000 308.738 C 320.000 309.256,320.259 309.515,320.777 309.515 C 321.294 309.515,321.553 309.773,321.553 310.291 C 321.553 310.723,321.812 311.068,322.136 311.068 C 322.456 311.068,322.718 311.346,322.718 311.687 C 322.718 312.027,323.068 312.397,323.495 312.509 C 323.922 312.621,324.272 312.970,324.272 313.286 C 324.272 313.601,324.621 313.951,325.049 314.062 C 325.478 314.175,325.825 314.592,325.825 314.997 C 325.825 315.469,326.100 315.728,326.602 315.728 C 327.120 315.728,327.379 315.987,327.379 316.505 C 327.379 317.277,327.120 317.282,277.861 317.282 L 228.343 317.282 228.443 337.379 L 228.544 357.476 294.479 357.574 C 352.612 357.661,360.440 357.741,360.637 358.254 C 360.759 358.573,361.103 358.835,361.401 358.835 C 361.698 358.835,361.942 359.173,361.942 359.585 C 361.942 359.998,362.291 360.447,362.718 360.583 C 363.146 360.718,363.495 361.079,363.495 361.385 C 363.495 361.691,363.737 361.942,364.032 361.942 C 364.328 361.942,364.661 362.291,364.773 362.718 C 364.884 363.146,365.234 363.495,365.549 363.495 C 365.865 363.495,366.214 363.845,366.326 364.272 C 366.438 364.699,366.808 365.049,367.148 365.049 C 367.508 365.049,367.767 365.373,367.767 365.825 C 367.767 366.599,367.508 366.602,290.680 366.602 L 213.592 366.602 213.592 337.282 L 213.592 307.961 266.796 307.961 C 319.741 307.961,320.000 307.965,320.000 308.738 " stroke="none" fill="#048404" fill-rule="evenodd"></path>
		<path id="path1" d="M264.579 38.835 C 264.466 39.265,264.049 39.612,263.644 39.612 C 263.172 39.612,262.913 39.887,262.913 40.388 C 262.913 40.840,262.654 41.165,262.294 41.165 C 261.953 41.165,261.583 41.515,261.472 41.942 C 261.360 42.369,261.029 42.718,260.736 42.718 C 260.415 42.718,260.105 43.335,259.955 44.272 C 259.796 45.265,259.501 45.825,259.137 45.825 C 258.824 45.825,258.477 46.175,258.365 46.602 C 258.253 47.029,257.920 47.379,257.625 47.379 C 257.270 47.379,257.087 47.839,257.087 48.738 C 257.087 49.838,256.939 50.097,256.311 50.097 C 255.793 50.097,255.534 50.356,255.534 50.874 C 255.534 51.392,255.275 51.650,254.757 51.650 C 254.256 51.650,253.981 51.909,253.981 52.382 C 253.981 52.787,253.634 53.204,253.204 53.316 C 252.609 53.472,252.427 53.846,252.427 54.915 C 252.427 56.052,252.283 56.311,251.650 56.311 C 251.133 56.311,250.874 56.570,250.874 57.087 C 250.874 57.605,250.615 57.864,250.097 57.864 C 249.579 57.864,249.320 58.123,249.320 58.641 C 249.320 59.068,249.078 59.417,248.781 59.417 C 248.472 59.417,248.133 59.998,247.987 60.777 C 247.834 61.590,247.505 62.136,247.167 62.136 C 246.856 62.136,246.602 62.465,246.602 62.867 C 246.602 63.272,246.255 63.689,245.825 63.802 C 245.230 63.957,245.049 64.332,245.049 65.401 C 245.049 66.537,244.904 66.796,244.272 66.796 C 243.754 66.796,243.495 67.055,243.495 67.573 C 243.495 68.091,243.236 68.350,242.718 68.350 C 242.217 68.350,241.942 68.608,241.942 69.081 C 241.942 69.486,241.595 69.903,241.165 70.015 C 240.608 70.161,240.388 70.545,240.388 71.375 C 240.388 72.204,240.169 72.588,239.612 72.734 C 239.184 72.846,238.835 73.215,238.835 73.556 C 238.835 73.896,238.588 74.175,238.287 74.175 C 237.949 74.175,237.637 74.773,237.476 75.728 C 237.314 76.683,237.002 77.282,236.665 77.282 C 236.363 77.282,236.117 77.631,236.117 78.058 C 236.117 78.576,235.858 78.835,235.340 78.835 C 234.822 78.835,234.563 79.094,234.563 79.612 C 234.563 80.129,234.304 80.388,233.786 80.388 C 233.158 80.388,233.010 80.647,233.010 81.748 C 233.010 82.848,232.862 83.107,232.233 83.107 C 231.731 83.107,231.456 83.366,231.456 83.838 C 231.456 84.243,231.109 84.660,230.680 84.773 C 230.085 84.928,229.903 85.302,229.903 86.371 C 229.903 87.508,229.759 87.767,229.126 87.767 C 228.608 87.767,228.350 88.026,228.350 88.544 C 228.350 88.971,228.099 89.320,227.793 89.320 C 227.487 89.320,227.126 89.670,226.990 90.097 C 226.855 90.524,226.493 90.874,226.187 90.874 C 225.810 90.874,225.631 91.312,225.631 92.233 C 225.631 93.333,225.483 93.592,224.854 93.592 C 224.353 93.592,224.078 93.851,224.078 94.324 C 224.078 94.728,223.731 95.146,223.301 95.258 C 222.706 95.414,222.524 95.788,222.524 96.857 C 222.524 97.994,222.380 98.252,221.748 98.252 C 221.230 98.252,220.971 98.511,220.971 99.029 C 220.971 99.547,220.712 99.806,220.194 99.806 C 219.676 99.806,219.417 100.065,219.417 100.583 C 219.417 101.010,219.174 101.359,218.877 101.359 C 218.283 101.359,217.864 102.175,217.864 103.333 C 217.864 103.755,217.596 104.078,217.245 104.078 C 216.905 104.078,216.535 104.427,216.423 104.854 C 216.311 105.282,215.978 105.631,215.683 105.631 C 215.315 105.631,215.146 106.121,215.146 107.184 C 215.146 108.479,215.016 108.738,214.369 108.738 C 213.851 108.738,213.592 108.997,213.592 109.515 C 213.592 110.032,213.333 110.291,212.816 110.291 C 212.314 110.291,212.039 110.550,212.039 111.023 C 212.039 111.427,211.692 111.845,211.262 111.957 C 210.705 112.103,210.485 112.487,210.485 113.316 C 210.485 114.146,210.266 114.530,209.709 114.676 C 209.282 114.787,208.932 115.137,208.932 115.452 C 208.932 115.768,208.583 116.117,208.155 116.229 C 207.728 116.341,207.379 116.692,207.379 117.009 C 207.379 117.327,207.126 117.684,206.818 117.802 C 206.509 117.921,206.140 118.638,205.998 119.397 C 205.849 120.191,205.510 120.777,205.199 120.777 C 204.903 120.777,204.660 121.126,204.660 121.553 C 204.660 122.071,204.401 122.330,203.883 122.330 C 203.255 122.330,203.107 122.589,203.107 123.689 C 203.107 124.790,202.959 125.049,202.330 125.049 C 201.560 125.049,201.553 124.790,201.553 96.699 L 201.553 68.350 189.515 68.350 C 177.735 68.350,177.476 68.366,177.476 69.126 C 177.476 69.644,177.217 69.903,176.699 69.903 C 176.181 69.903,175.922 70.162,175.922 70.680 C 175.922 71.107,175.680 71.456,175.383 71.456 C 175.077 71.456,174.736 72.028,174.596 72.778 C 174.459 73.505,174.090 74.199,173.776 74.319 C 173.422 74.455,173.204 75.061,173.204 75.910 C 173.204 77.023,173.057 77.282,172.427 77.282 C 171.780 77.282,171.650 77.540,171.650 78.835 C 171.650 80.129,171.521 80.388,170.874 80.388 C 170.250 80.388,170.097 80.647,170.097 81.702 C 170.097 82.690,169.904 83.067,169.320 83.219 C 168.725 83.375,168.544 83.749,168.544 84.818 C 168.544 85.955,168.400 86.214,167.767 86.214 C 167.120 86.214,166.990 86.472,166.990 87.767 C 166.990 89.061,166.861 89.320,166.214 89.320 C 165.586 89.320,165.437 89.579,165.437 90.666 C 165.437 91.614,165.207 92.134,164.660 92.427 C 164.152 92.699,163.883 93.240,163.883 93.994 C 163.883 94.759,163.688 95.146,163.301 95.146 C 162.880 95.146,162.718 95.577,162.718 96.699 C 162.718 97.994,162.589 98.252,161.942 98.252 C 161.294 98.252,161.165 98.511,161.165 99.806 C 161.165 101.100,161.036 101.359,160.388 101.359 C 159.871 101.359,159.612 101.618,159.612 102.136 C 159.612 102.654,159.353 102.913,158.835 102.913 C 158.217 102.913,158.058 103.172,158.058 104.178 C 158.058 105.024,157.800 105.605,157.282 105.929 C 156.786 106.239,156.505 106.835,156.505 107.576 C 156.505 108.310,156.306 108.738,155.964 108.738 C 155.338 108.738,154.951 109.565,154.951 110.906 C 154.951 111.449,154.724 111.845,154.410 111.845 C 153.824 111.845,153.398 112.658,153.398 113.777 C 153.398 114.163,153.136 114.581,152.816 114.704 C 152.450 114.844,152.233 115.438,152.233 116.298 C 152.233 117.411,152.086 117.670,151.456 117.670 C 150.809 117.670,150.680 117.929,150.680 119.223 C 150.680 120.518,150.550 120.777,149.903 120.777 C 149.256 120.777,149.126 121.036,149.126 122.330 C 149.126 123.625,148.997 123.883,148.350 123.883 C 147.721 123.883,147.573 124.142,147.573 125.243 C 147.573 126.343,147.425 126.602,146.796 126.602 C 146.149 126.602,146.019 126.861,146.019 128.155 C 146.019 129.450,145.890 129.709,145.243 129.709 C 144.595 129.709,144.466 129.968,144.466 131.262 C 144.466 132.557,144.337 132.816,143.689 132.816 C 143.172 132.816,142.913 133.074,142.913 133.592 C 142.913 134.024,142.654 134.369,142.330 134.369 C 141.925 134.369,141.748 134.776,141.748 135.702 C 141.748 136.694,141.549 137.098,140.971 137.282 C 140.400 137.463,140.194 137.869,140.194 138.816 C 140.194 139.777,139.997 140.155,139.417 140.307 C 138.823 140.462,138.641 140.836,138.641 141.905 C 138.641 143.042,138.497 143.301,137.864 143.301 C 137.217 143.301,137.087 143.560,137.087 144.854 C 137.087 146.149,136.958 146.408,136.311 146.408 C 135.687 146.408,135.534 146.667,135.534 147.722 C 135.534 148.709,135.341 149.086,134.757 149.239 C 134.168 149.393,133.981 149.768,133.981 150.792 C 133.981 151.816,133.793 152.192,133.204 152.346 C 132.609 152.501,132.427 152.875,132.427 153.944 C 132.427 154.926,132.254 155.340,131.845 155.340 C 131.438 155.340,131.262 155.750,131.262 156.699 C 131.262 157.799,131.114 158.058,130.485 158.058 C 129.838 158.058,129.709 158.317,129.709 159.612 C 129.709 160.906,129.579 161.165,128.932 161.165 C 128.285 161.165,128.155 161.424,128.155 162.718 C 128.155 164.013,128.026 164.272,127.379 164.272 C 126.877 164.272,126.602 164.531,126.602 165.003 C 126.602 165.408,126.255 165.825,125.825 165.938 C 125.236 166.092,125.049 166.467,125.049 167.491 C 125.049 168.515,124.861 168.891,124.272 169.045 C 123.706 169.192,123.495 169.574,123.495 170.449 C 123.495 171.217,123.300 171.650,122.954 171.650 C 122.328 171.650,121.942 172.478,121.942 173.818 C 121.942 174.394,121.716 174.757,121.359 174.757 C 120.939 174.757,120.777 175.189,120.777 176.311 C 120.777 177.605,120.647 177.864,120.000 177.864 C 119.371 177.864,119.223 178.123,119.223 179.223 C 119.223 180.324,119.075 180.583,118.447 180.583 C 117.799 180.583,117.670 180.841,117.670 182.136 C 117.670 183.430,117.540 183.689,116.893 183.689 C 116.246 183.689,116.117 183.948,116.117 185.243 C 116.117 186.537,115.987 186.796,115.340 186.796 C 114.716 186.796,114.563 187.055,114.563 188.110 C 114.563 189.109,114.372 189.474,113.765 189.633 C 113.066 189.816,112.982 190.097,113.085 191.911 L 113.204 193.981 114.660 194.101 C 115.911 194.205,116.117 194.109,116.117 193.422 C 116.117 192.880,116.368 192.621,116.893 192.621 C 117.395 192.621,117.670 192.362,117.670 191.890 C 117.670 191.485,118.017 191.068,118.447 190.955 C 118.874 190.844,119.223 190.474,119.223 190.133 C 119.223 189.793,119.478 189.515,119.788 189.515 C 120.126 189.515,120.456 188.969,120.608 188.155 C 120.754 187.377,121.094 186.796,121.402 186.796 C 121.699 186.796,121.942 186.447,121.942 186.019 C 121.942 185.502,122.201 185.243,122.718 185.243 C 123.236 185.243,123.495 184.984,123.495 184.466 C 123.495 183.948,123.754 183.689,124.272 183.689 C 124.774 183.689,125.049 183.430,125.049 182.958 C 125.049 182.553,125.395 182.136,125.825 182.023 C 126.420 181.868,126.602 181.494,126.602 180.425 C 126.602 179.288,126.746 179.029,127.379 179.029 C 127.806 179.029,128.155 178.779,128.155 178.473 C 128.155 178.167,128.505 177.805,128.932 177.670 C 129.359 177.534,129.709 177.168,129.709 176.855 C 129.709 176.542,129.966 176.188,130.281 176.067 C 130.595 175.946,130.964 175.253,131.101 174.526 C 131.241 173.776,131.582 173.204,131.888 173.204 C 132.184 173.204,132.427 172.854,132.427 172.427 C 132.427 171.909,132.686 171.650,133.204 171.650 C 133.722 171.650,133.981 171.392,133.981 170.874 C 133.981 170.356,134.239 170.097,134.757 170.097 C 135.259 170.097,135.534 169.838,135.534 169.366 C 135.534 168.961,135.881 168.544,136.311 168.431 C 136.876 168.283,137.087 167.901,137.087 167.027 C 137.087 166.084,137.255 165.825,137.864 165.825 C 138.366 165.825,138.641 165.566,138.641 165.094 C 138.641 164.689,138.988 164.272,139.417 164.159 C 139.845 164.048,140.194 163.698,140.194 163.383 C 140.194 163.067,140.544 162.718,140.971 162.606 C 141.398 162.494,141.748 162.124,141.748 161.784 C 141.748 161.444,142.010 161.165,142.330 161.165 C 142.751 161.165,142.913 160.734,142.913 159.612 C 142.913 158.317,143.042 158.058,143.689 158.058 C 144.207 158.058,144.466 157.799,144.466 157.282 C 144.466 156.764,144.725 156.505,145.243 156.505 C 145.674 156.505,146.019 156.246,146.019 155.922 C 146.019 155.602,146.287 155.340,146.614 155.340 C 146.941 155.340,147.323 155.034,147.462 154.660 C 147.602 154.286,148.033 153.752,148.421 153.473 C 148.828 153.180,149.126 152.482,149.126 151.823 C 149.126 150.939,149.302 150.680,149.903 150.680 C 150.405 150.680,150.680 150.421,150.680 149.948 C 150.680 149.543,151.026 149.126,151.456 149.014 C 151.883 148.902,152.233 148.532,152.233 148.192 C 152.233 147.851,152.495 147.573,152.816 147.573 C 153.139 147.573,153.398 147.228,153.398 146.796 C 153.398 146.278,153.657 146.019,154.175 146.019 C 154.804 146.019,154.951 145.761,154.951 144.660 C 154.951 143.560,155.099 143.301,155.728 143.301 C 156.246 143.301,156.505 143.042,156.505 142.524 C 156.505 142.006,156.764 141.748,157.282 141.748 C 157.783 141.748,158.058 141.489,158.058 141.016 C 158.058 140.611,158.405 140.194,158.835 140.082 C 159.430 139.926,159.612 139.552,159.612 138.483 C 159.612 137.346,159.756 137.087,160.388 137.087 C 160.906 137.087,161.165 136.828,161.165 136.311 C 161.165 135.793,161.424 135.534,161.942 135.534 C 162.369 135.534,162.718 135.291,162.718 134.993 C 162.718 134.695,162.981 134.351,163.301 134.228 C 163.621 134.106,163.883 133.749,163.883 133.436 C 163.883 133.124,164.233 132.757,164.660 132.621 C 165.238 132.438,165.437 132.034,165.437 131.042 C 165.437 129.968,165.588 129.709,166.214 129.709 C 166.731 129.709,166.990 129.450,166.990 128.932 C 166.990 128.414,167.249 128.155,167.767 128.155 C 168.285 128.155,168.544 127.896,168.544 127.379 C 168.544 126.861,168.803 126.602,169.320 126.602 C 169.838 126.602,170.097 126.343,170.097 125.825 C 170.097 125.398,170.341 125.049,170.638 125.049 C 171.223 125.049,171.650 124.235,171.650 123.120 C 171.650 122.736,172.000 122.329,172.427 122.218 C 172.854 122.106,173.204 121.736,173.204 121.396 C 173.204 121.055,173.466 120.777,173.786 120.777 C 174.110 120.777,174.369 120.431,174.369 120.000 C 174.369 119.482,174.628 119.223,175.146 119.223 C 175.647 119.223,175.922 118.964,175.922 118.492 C 175.922 118.087,176.269 117.670,176.699 117.557 C 177.469 117.356,177.476 117.545,177.476 138.483 L 177.476 159.612 190.291 159.612 L 203.107 159.612 203.107 158.058 C 203.107 156.764,203.236 156.505,203.883 156.505 C 204.512 156.505,204.660 156.246,204.660 155.146 C 204.660 154.196,204.836 153.786,205.243 153.786 C 205.563 153.786,205.825 153.457,205.825 153.055 C 205.825 152.650,206.172 152.233,206.602 152.120 C 207.197 151.965,207.379 151.591,207.379 150.522 C 207.379 149.385,207.523 149.126,208.155 149.126 C 208.803 149.126,208.932 148.867,208.932 147.573 C 208.932 146.278,209.061 146.019,209.709 146.019 C 210.332 146.019,210.485 145.761,210.485 144.705 C 210.485 143.718,210.679 143.341,211.262 143.188 C 211.857 143.033,212.039 142.659,212.039 141.590 C 212.039 140.453,212.183 140.194,212.816 140.194 C 213.333 140.194,213.592 139.935,213.592 139.417 C 213.592 138.990,213.839 138.641,214.141 138.641 C 214.478 138.641,214.790 138.042,214.951 137.087 C 215.113 136.132,215.425 135.534,215.762 135.534 C 216.127 135.534,216.311 135.093,216.311 134.220 C 216.311 133.233,216.504 132.856,217.087 132.703 C 217.682 132.547,217.864 132.173,217.864 131.104 C 217.864 129.968,218.008 129.709,218.641 129.709 C 219.288 129.709,219.417 129.450,219.417 128.155 C 219.417 126.861,219.547 126.602,220.194 126.602 C 220.823 126.602,220.971 126.343,220.971 125.243 C 220.971 124.281,221.145 123.883,221.566 123.883 C 221.893 123.883,222.270 123.578,222.404 123.204 C 222.539 122.830,222.970 122.212,223.363 121.830 C 223.756 121.447,224.078 120.705,224.078 120.179 C 224.078 119.621,224.303 119.223,224.619 119.223 C 225.245 119.223,225.631 118.396,225.631 117.056 C 225.631 116.480,225.856 116.117,226.214 116.117 C 226.617 116.117,226.796 115.712,226.796 114.803 C 226.796 113.815,226.989 113.438,227.573 113.286 C 228.168 113.130,228.350 112.756,228.350 111.687 C 228.350 110.550,228.494 110.291,229.126 110.291 C 229.773 110.291,229.903 110.032,229.903 108.738 C 229.903 107.443,230.032 107.184,230.680 107.184 C 231.181 107.184,231.456 106.926,231.456 106.453 C 231.456 106.048,231.803 105.631,232.233 105.519 C 232.822 105.365,233.010 104.989,233.010 103.965 C 233.010 102.941,233.198 102.566,233.786 102.412 C 234.344 102.266,234.563 101.882,234.563 101.053 C 234.563 100.223,234.783 99.839,235.340 99.693 C 235.935 99.538,236.117 99.164,236.117 98.095 C 236.117 97.113,236.289 96.699,236.699 96.699 C 237.120 96.699,237.282 96.268,237.282 95.146 C 237.282 93.851,237.411 93.592,238.058 93.592 C 238.576 93.592,238.835 93.333,238.835 92.816 C 238.835 92.298,239.094 92.039,239.612 92.039 C 240.235 92.039,240.388 91.780,240.388 90.725 C 240.388 89.738,240.581 89.360,241.165 89.208 C 241.754 89.054,241.942 88.678,241.942 87.654 C 241.942 86.631,242.130 86.255,242.718 86.101 C 243.313 85.945,243.495 85.571,243.495 84.502 C 243.495 83.366,243.639 83.107,244.272 83.107 C 244.896 83.107,245.049 82.848,245.049 81.793 C 245.049 80.806,245.242 80.428,245.825 80.276 C 246.420 80.120,246.602 79.746,246.602 78.677 C 246.602 77.696,246.775 77.282,247.184 77.282 C 247.505 77.282,247.767 76.952,247.767 76.550 C 247.767 76.145,248.114 75.728,248.544 75.616 C 249.139 75.460,249.320 75.086,249.320 74.017 C 249.320 72.880,249.464 72.621,250.097 72.621 C 250.721 72.621,250.874 72.362,250.874 71.307 C 250.874 70.320,251.067 69.943,251.650 69.790 C 252.245 69.635,252.427 69.261,252.427 68.192 C 252.427 67.055,252.571 66.796,253.204 66.796 C 253.851 66.796,253.981 66.537,253.981 65.243 C 253.981 63.948,254.110 63.689,254.757 63.689 C 255.275 63.689,255.534 63.430,255.534 62.913 C 255.534 62.485,255.781 62.136,256.082 62.136 C 256.420 62.136,256.732 61.538,256.893 60.583 C 257.055 59.628,257.367 59.029,257.704 59.029 C 258.068 59.029,258.252 58.588,258.252 57.715 C 258.252 56.728,258.445 56.351,259.029 56.198 C 259.624 56.043,259.806 55.668,259.806 54.599 C 259.806 53.463,259.950 53.204,260.583 53.204 C 261.230 53.204,261.359 52.945,261.359 51.650 C 261.359 50.356,261.489 50.097,262.136 50.097 C 262.765 50.097,262.913 49.838,262.913 48.738 C 262.913 47.776,263.087 47.379,263.507 47.379 C 263.834 47.379,264.216 47.073,264.356 46.699 C 264.495 46.325,264.926 45.791,265.314 45.512 C 265.721 45.219,266.019 44.521,266.019 43.861 C 266.019 43.143,266.221 42.718,266.560 42.718 C 267.695 42.718,268.055 38.715,266.959 38.294 C 265.760 37.834,264.782 38.057,264.579 38.835 M243.010 239.092 C 243.277 239.200,243.495 239.536,243.495 239.838 C 243.495 240.141,243.568 240.388,243.658 240.388 C 243.747 240.388,244.110 240.500,244.465 240.636 C 244.902 240.803,244.803 240.552,244.161 239.859 C 243.639 239.296,243.057 238.849,242.868 238.866 C 242.679 238.882,242.743 238.984,243.010 239.092 M29.525 343.094 C 29.265 343.407,29.143 343.888,29.253 344.162 C 29.382 344.483,29.464 344.425,29.484 344.000 C 29.501 343.637,29.820 343.161,30.194 342.944 C 30.568 342.726,30.677 342.543,30.436 342.536 C 30.195 342.530,29.785 342.781,29.525 343.094 " stroke="none" fill="#fc0404" fill-rule="evenodd">
		</path>
		<path id="path2" d="" stroke="none" fill="#408804" fill-rule="evenodd">
		</path>
		<path id="path3" d="" stroke="none" fill="#408804" fill-rule="evenodd">
		</path>
		<path id="path4" d="" stroke="none" fill="#408804" fill-rule="evenodd">
		</path>
	</g>
</svg>